<svg xmlns="http://www.w3.org/2000/svg" viewBox="0 0 64 64" fill="none">
  <defs>
    <linearGradient id="dg-bg" x1="8" y1="4" x2="56" y2="60" gradientUnits="userSpaceOnUse">
      <stop stop-color="#5B9DFF"/>
      <stop offset=".48" stop-color="#4F8CFF"/>
      <stop offset="1" stop-color="#7C5CFF"/>
    </linearGradient>
  </defs>
  <rect width="64" height="64" rx="14" fill="url(#dg-bg)"/>
  <rect width="64" height="64" rx="14" fill="url(#dg-bg)" fill-opacity=".001"/>
  <path d="M32 10.5c-11 3.6-18.5 6.2-18.5 6.2v15.3c0 10.2 8.4 17.2 18.5 21 10.1-3.8 18.5-10.8 18.5-21V16.7S43 14.1 32 10.5z" fill="rgba(255,255,255,0.15)" stroke="rgba(255,255,255,0.42)" stroke-width="1.3"/>
  <path d="M32 15.2c-8.2 2.7-14 4.6-14 4.6v11.9c0 7.9 6.5 13.4 14 15.8 7.5-2.4 14-7.9 14-15.8v-11.9s-5.8-1.9-14-4.6z" fill="rgba(255,255,255,0.08)"/>
  <text x="32" y="38.8" text-anchor="middle" fill="#fff" font-family="system-ui,-apple-system,BlinkMacSystemFont,Segoe UI,Roboto,sans-serif" font-size="19" font-weight="800" letter-spacing="-0.8">DG</text>
</svg>
